HIERARCHY
ROOT Hips
{
  OFFSET 5.84602e-005 68.8428 3.50346
  CHANNELS 6 Xposition Yposition Zposition Zrotation Xrotation Yrotation
  JOINT Spine
  {
    OFFSET 0 8.597 -4.6522
    CHANNELS 3 Zrotation Xrotation Yrotation
    JOINT Spine1
    {
      OFFSET 0 7.8454 0.4098
      CHANNELS 3 Zrotation Xrotation Yrotation
      JOINT Spine2
      {
        OFFSET 0 9.7078 -2.1609
        CHANNELS 3 Zrotation Xrotation Yrotation
        JOINT Neck
        {
          OFFSET 0 21.8761 -0.4549
          CHANNELS 3 Zrotation Xrotation Yrotation
          JOINT Head
          {
            OFFSET 0 12.3537 3.3602
            CHANNELS 3 Zrotation Xrotation Yrotation
            End Site
            {
              OFFSET 0.0001 18.9506 0.5657
            }
          }
        }
        JOINT LeftShoulder
        {
          OFFSET 2.2086 21.1115 7.2329
          CHANNELS 3 Zrotation Xrotation Yrotation
          JOINT LeftArm
          {
            OFFSET 13.1193 3.0282 -4.8998
            CHANNELS 3 Zrotation Xrotation Yrotation
            JOINT LeftForeArm
            {
              OFFSET 27.4081 -0.0973053 -0.2375
              CHANNELS 3 Zrotation Xrotation Yrotation
              JOINT LeftHand
              {
                OFFSET 22.8641 0.0662994 -0.1369
                CHANNELS 3 Zrotation Xrotation Yrotation
                JOINT LeftHandIndex1
                {
                  OFFSET 8.8614 0.775009 2.4612
                  CHANNELS 3 Zrotation Xrotation Yrotation
                  JOINT LeftHandIndex2
                  {
                    OFFSET 3.3146 -0.808304 0.5841
                    CHANNELS 3 Zrotation Xrotation Yrotation
                    JOINT LeftHandIndex3
                    {
                      OFFSET 2.2628 -0.552002 0.3989
                      CHANNELS 3 Zrotation Xrotation Yrotation
                      End Site
                      {
                        OFFSET 1.6102 -0.4807 0.2612
                      }
                    }
                  }
                }
                JOINT LeftHandMiddle1
                {
                  OFFSET 8.9937 0.895004 0.2143
                  CHANNELS 3 Zrotation Xrotation Yrotation
                  JOINT LeftHandMiddle2
                  {
                    OFFSET 4.0984 0.0113983 -0.0242
                    CHANNELS 3 Zrotation Xrotation Yrotation
                    JOINT LeftHandMiddle3
                    {
                      OFFSET 2.2716 0.00689697 -0.0138001
                      CHANNELS 3 Zrotation Xrotation Yrotation
                      End Site
                      {
                        OFFSET 2.0404 -0.1441 0.0027
                      }
                    }
                  }
                }
                JOINT LeftHandRing1
                {
                  OFFSET 8.5234 0.597198 -2.0164
                  CHANNELS 3 Zrotation Xrotation Yrotation
                  JOINT LeftHandRing2
                  {
                    OFFSET 3.7188 -0.188293 -0.2328
                    CHANNELS 3 Zrotation Xrotation Yrotation
                    JOINT LeftHandRing3
                    {
                      OFFSET 2.1191 -0.106598 -0.1332
                      CHANNELS 3 Zrotation Xrotation Yrotation
                      End Site
                      {
                        OFFSET 1.8737 -0.2304 -0.0886
                      }
                    }
                  }
                }
                JOINT LeftHandPinky1
                {
                  OFFSET 7.9094 -0.601089 -3.4825
                  CHANNELS 3 Zrotation Xrotation Yrotation
                  JOINT LeftHandPinky2
                  {
                    OFFSET 2.2874 -0.477005 -0.6314
                    CHANNELS 3 Zrotation Xrotation Yrotation
                    JOINT LeftHandPinky3
                    {
                      OFFSET 1.6774 -0.349396 -0.4633
                      CHANNELS 3 Zrotation Xrotation Yrotation
                      End Site
                      {
                        OFFSET 1.4888 -0.4091 -0.3416
                      }
                    }
                  }
                }
                JOINT LeftHandThumb1
                {
                  OFFSET 1.833 -1.3875 1.3896
                  CHANNELS 3 Zrotation Xrotation Yrotation
                  JOINT LeftHandThumb2
                  {
                    OFFSET 3.4129 -1.121 2.5732
                    CHANNELS 3 Zrotation Xrotation Yrotation
                    JOINT LeftHandThumb3
                    {
                      OFFSET 2.2474 -0.804199 1.6192
                      CHANNELS 3 Zrotation Xrotation Yrotation
                      End Site
                      {
                        OFFSET 1.6527 -0.5689 1.1317
                      }
                    }
                  }
                }
              }
            }
          }
        }
        JOINT RightShoulder
        {
          OFFSET -2.2086 21.1115 7.2329
          CHANNELS 3 Zrotation Xrotation Yrotation
          JOINT RightArm
          {
            OFFSET -13.1216 3.0287 -4.9007
            CHANNELS 3 Zrotation Xrotation Yrotation
            JOINT RightForeArm
            {
              OFFSET -27.4081 -0.0973053 -0.2375
              CHANNELS 3 Zrotation Xrotation Yrotation
              JOINT RightHand
              {
                OFFSET -22.8641 0.0664063 -0.1369
                CHANNELS 3 Zrotation Xrotation Yrotation
                JOINT RightHandIndex1
                {
                  OFFSET -8.8614 0.774994 2.4612
                  CHANNELS 3 Zrotation Xrotation Yrotation
                  JOINT RightHandIndex2
                  {
                    OFFSET -3.3146 -0.808304 0.5841
                    CHANNELS 3 Zrotation Xrotation Yrotation
                    JOINT RightHandIndex3
                    {
                      OFFSET -2.2628 -0.552002 0.3989
                      CHANNELS 3 Zrotation Xrotation Yrotation
                      End Site
                      {
                        OFFSET -1.6102 -0.4807 0.2612
                      }
                    }
                  }
                }
                JOINT RightHandMiddle1
                {
                  OFFSET -8.9937 0.894989 0.2143
                  CHANNELS 3 Zrotation Xrotation Yrotation
                  JOINT RightHandMiddle2
                  {
                    OFFSET -4.0984 0.0113983 -0.0242
                    CHANNELS 3 Zrotation Xrotation Yrotation
                    JOINT RightHandMiddle3
                    {
                      OFFSET -2.2716 0.00691223 -0.0138001
                      CHANNELS 3 Zrotation Xrotation Yrotation
                      End Site
                      {
                        OFFSET -2.0404 -0.1441 0.0027
                      }
                    }
                  }
                }
                JOINT RightHandRing1
                {
                  OFFSET -8.5234 0.597198 -2.0164
                  CHANNELS 3 Zrotation Xrotation Yrotation
                  JOINT RightHandRing2
                  {
                    OFFSET -3.7188 -0.188309 -0.2328
                    CHANNELS 3 Zrotation Xrotation Yrotation
                    JOINT RightHandRing3
                    {
                      OFFSET -2.1191 -0.106598 -0.1332
                      CHANNELS 3 Zrotation Xrotation Yrotation
                      End Site
                      {
                        OFFSET -1.8737 -0.2304 -0.0886
                      }
                    }
                  }
                }
                JOINT RightHandPinky1
                {
                  OFFSET -7.9094 -0.601105 -3.4825
                  CHANNELS 3 Zrotation Xrotation Yrotation
                  JOINT RightHandPinky2
                  {
                    OFFSET -2.2874 -0.477005 -0.6314
                    CHANNELS 3 Zrotation Xrotation Yrotation
                    JOINT RightHandPinky3
                    {
                      OFFSET -1.6774 -0.349396 -0.4633
                      CHANNELS 3 Zrotation Xrotation Yrotation
                      End Site
                      {
                        OFFSET -1.4888 -0.4091 -0.3416
                      }
                    }
                  }
                }
                JOINT RightHandThumb1
                {
                  OFFSET -1.833 -1.38751 1.3896
                  CHANNELS 3 Zrotation Xrotation Yrotation
                  JOINT RightHandThumb2
                  {
                    OFFSET -3.41299 -1.12099 2.5732
                    CHANNELS 3 Zrotation Xrotation Yrotation
                    JOINT RightHandThumb3
                    {
                      OFFSET -2.24741 -0.804108 1.6192
                      CHANNELS 3 Zrotation Xrotation Yrotation
                      End Site
                      {
                        OFFSET -1.6527 -0.5689 1.1317
                      }
                    }
                  }
                }
              }
            }
          }
        }
      }
    }
  }
  JOINT RightUpLeg
  {
    OFFSET -9.1966 3.8861 -0.7581
    CHANNELS 3 Zrotation Xrotation Yrotation
    JOINT RightLeg
    {
      OFFSET -0.7359 -41.0265 0
      CHANNELS 3 Zrotation Xrotation Yrotation
      JOINT RightFoot
      {
        OFFSET 0 -40.2855 0
        CHANNELS 3 Zrotation Xrotation Yrotation
        JOINT RightToeBase
        {
          OFFSET 0 -5.6122 11.7359
          CHANNELS 3 Zrotation Xrotation Yrotation
          End Site
          {
            OFFSET 0 0 7.8731
          }
        }
      }
    }
  }
  JOINT LeftUpLeg
  {
    OFFSET 9.1965 3.8864 -0.7581
    CHANNELS 3 Zrotation Xrotation Yrotation
    JOINT LeftLeg
    {
      OFFSET 0.7359 -41.0268 0
      CHANNELS 3 Zrotation Xrotation Yrotation
      JOINT LeftFoot
      {
        OFFSET 0 -40.2855 0
        CHANNELS 3 Zrotation Xrotation Yrotation
        JOINT LeftToeBase
        {
          OFFSET 0 -5.6122 11.7359
          CHANNELS 3 Zrotation Xrotation Yrotation
          End Site
          {
            OFFSET 0 0 7.8731
          }
        }
      }
    }
  }
}
MOTION
Frames:	4
Frame Time:	0.0333333
41.2849 39.3056 18.6486 179.97 59.0055 -29.9888 -0.591079 8.59278 4.1356 -1.84711 17.1184 8.50704 -1.84711 17.1184 8.50705 -30.4215 26.2836 14.5738 -5.05061 -7.97171 -8.7039 -41.7089 0.340328 -2.00488 -27.8992 55.0199 1.18005 4.61102 35.4717 -6.32422 6.1656 -11.9155 -9.41393 3.97569e-016 1.49089e-015 -3.18055e-015 3.97569e-016 1.39149e-015 -6.36111e-015 -3.97569e-016 1.68967e-015 -0 3.97569e-016 1.49089e-015 -3.18055e-015 -0.0146154 -8.88039e-005 -3.4669e-007 7.95139e-016 1.98785e-016 -3.18055e-015 3.97569e-016 1.49089e-015 -3.18055e-015 -0.0187423 -0.00117501 6.67334e-005 1.19271e-015 -7.95139e-016 3.18055e-015 3.97569e-016 1.49089e-015 -3.18055e-015 -0.0122544 -0.00324447 0.000669351 -6.36246e-008 5.52827e-008 1.52988e-006 3.97569e-016 1.49089e-015 -3.18055e-015 3.97569e-016 1.39149e-015 -6.36111e-015 -3.97569e-016 1.68967e-015 -0 -17.5095 -6.7565 -0.154305 71.7676 54.7916 -4.95446 -17.6548 31.519 39.7372 2.87064 1.30268 -16.5566 -6.36111e-015 2.74323e-014 -3.18055e-015 -1.29102e-007 -1.69753e-007 -7.36971e-009 7.95139e-016 1.98785e-016 -0 -6.36111e-015 2.74323e-014 -3.18055e-015 0.01503 -9.11055e-005 -8.20907e-006 2.19426e-007 1.73245e-007 -1.29509e-006 -6.36111e-015 2.74323e-014 -3.18055e-015 0.0190196 -0.00119308 -4.91244e-005 -7.95139e-016 -3.97569e-015 -0 -6.36111e-015 2.74323e-014 -3.18055e-015 0.0122716 -0.00324866 -0.000678883 -7.95139e-016 3.18055e-015 -0 -6.36111e-015 2.74323e-014 -3.18055e-015 -1.29102e-007 -1.69753e-007 -7.36971e-009 7.95139e-016 1.98785e-016 -0 -82.8681 -40.5487 -73.0953 -131.553 66.6144 157.794 -27.1862 8.69853 4.08716 1.04655e-006 9.62128e-007 1.99901e-006 67.2378 -52.4558 69.2564 3.1191 19.6962 -0.0781489 3.79453 -2.02835 0.0671973 8.49745e-007 5.6617e-009 -1.05639e-007 
41.2854 39.3061 18.6507 179.97 59.0055 -29.9888 -0.629807 8.67875 4.13205 -1.93268 17.2873 8.50986 -1.93268 17.2873 8.50986 -30.3268 25.9546 14.359 -5.05058 -7.97169 -7.93324 -41.22 0.229402 -2.32393 -28.3693 55.0121 1.20877 4.8288 35.4538 -6.59454 6.19292 -12.1707 -9.28182 3.97569e-016 -1.78906e-015 -0 7.95139e-016 -1.68967e-015 -0 7.95139e-016 -1.68967e-015 -0 3.97569e-016 -1.78906e-015 -0 -0.0146369 -8.90263e-005 -6.99947e-006 7.95139e-015 2.0773e-014 -1.27222e-014 3.97569e-016 -1.78906e-015 -0 -0.0187477 -0.00117537 6.01307e-005 -2.20695e-032 -3.97569e-016 -3.18055e-015 3.97569e-016 -1.78906e-015 -0 -0.0123045 -0.00325731 0.000675645 -7.95139e-016 1.78906e-015 3.18055e-015 3.97569e-016 -1.78906e-015 -0 7.95139e-016 -1.68967e-015 -0 7.95139e-016 -1.68967e-015 -0 -17.59 -7.14029 -0.0754437 71.7676 54.7916 -4.95447 -17.6547 31.519 39.7372 2.82741 1.11042 -16.4717 7.95139e-016 -2.78299e-015 3.18055e-015 2.38542e-015 -2.18663e-015 3.18055e-015 7.95139e-016 -2.38542e-015 3.18055e-015 7.95139e-016 -2.78299e-015 3.18055e-015 0.0149942 -9.05275e-005 -6.63226e-006 7.95139e-016 -3.97569e-015 -3.18055e-015 7.95139e-016 -2.78299e-015 3.18055e-015 0.0189916 -0.00119131 -4.55089e-005 -7.95139e-016 1.19271e-015 -0 7.95139e-016 -2.78299e-015 3.18055e-015 0.0122903 -0.00325366 -0.000678354 1.59028e-015 3.18055e-015 -3.18055e-015 7.95139e-016 -2.78299e-015 3.18055e-015 2.38542e-015 -2.18663e-015 3.18055e-015 7.95139e-016 -2.38542e-015 3.18055e-015 -82.5383 -40.3415 -72.8445 -131.023 66.6293 157.326 -27.1826 8.70859 4.08821 -3.18055e-015 -6.36111e-015 5.56597e-015 67.2604 -52.4625 69.2841 3.11928 19.7011 -0.078197 3.79402 -2.03236 0.0673212 2.70034e-007 5.03862e-009 5.65712e-008 
41.2858 39.3067 18.6527 179.97 59.0055 -29.9888 -0.668428 8.76469 4.12805 -2.01807 17.4561 8.51198 -2.01806 17.4561 8.51197 -30.2338 25.6249 14.1453 -5.05055 -7.97168 -7.16102 -40.7317 0.115812 -2.64199 -28.8393 55.0041 1.23736 5.04642 35.435 -6.86472 6.22086 -12.4259 -9.14944 0 5.96354e-016 -0 3.97569e-016 8.94531e-016 -0 0 4.96962e-016 -0 0 5.96354e-016 -0 -0.0146008 -8.9127e-005 -4.63349e-006 3.97569e-016 3.97569e-016 -3.18055e-015 0 5.96354e-016 -0 -0.0187479 -0.00117551 6.65941e-005 -5.70026e-008 5.77985e-008 1.51024e-006 0 5.96354e-016 -0 -0.0123075 -0.00325781 0.000679627 7.95139e-016 -2.98177e-016 6.36111e-015 0 5.96354e-016 -0 3.97569e-016 8.94531e-016 -0 0 4.96962e-016 -0 -17.67 -7.52422 0.00292495 71.7676 54.7916 -4.95443 -17.6547 31.519 39.7372 2.78447 0.918098 -16.387 -6.36111e-015 -1.98785e-015 -1.59028e-014 -5.56597e-015 -2.18663e-015 -9.54166e-015 -3.97569e-015 -2.38542e-015 -9.54166e-015 -6.36111e-015 -1.98785e-015 -1.59028e-014 0.0149998 -9.10586e-005 -2.47591e-006 -7.15625e-015 2.56432e-014 -0 -6.36111e-015 -1.98785e-015 -1.59028e-014 0.0189918 -0.00119131 -5.5758e-005 -7.95139e-016 9.93923e-016 -3.18055e-015 -6.36111e-015 -1.98785e-015 -1.59028e-014 0.0122424 -0.00324144 -0.000677552 1.59028e-015 -1.39149e-015 -0 -6.36111e-015 -1.98785e-015 -1.59028e-014 -5.56597e-015 -2.18663e-015 -9.54166e-015 -3.97569e-015 -2.38542e-015 -9.54166e-015 -82.2106 -40.1334 -72.5959 -130.493 66.6424 156.857 -27.179 8.71856 4.08918 -1.1738e-006 3.32824e-006 5.64162e-006 67.2829 -52.4692 69.3118 3.11946 19.706 -0.0782612 3.79351 -2.03633 0.0674437 1.00945e-015 1.98785e-016 -0 
41.2863 39.3072 18.6548 179.97 59.0055 -29.9888 -0.706927 8.85061 4.12368 -2.10322 17.6248 8.51337 -2.10321 17.6248 8.51337 -30.1423 25.2949 13.9327 -5.05052 -7.97167 -6.38727 -40.2442 -0.000490678 -2.95901 -29.3091 54.996 1.26583 5.26387 35.4154 -7.13474 6.24944 -12.681 -9.01683 -7.95139e-016 1.98785e-016 -3.18055e-015 -7.95139e-016 2.98177e-016 -0 -7.95139e-016 3.97569e-016 3.18055e-015 -7.95139e-016 1.98785e-016 -3.18055e-015 -0.0145813 -8.82588e-005 1.24964e-005 7.72434e-032 1.39149e-015 -3.18055e-015 -7.95139e-016 1.98785e-016 -3.18055e-015 -0.0187511 -0.0011753 6.85983e-005 7.95139e-016 -1.19271e-015 3.18055e-015 -7.95139e-016 1.98785e-016 -3.18055e-015 -0.0122495 -0.00324289 0.000667663 3.97569e-016 2.98177e-016 -3.18055e-015 -7.95139e-016 1.98785e-016 -3.18055e-015 -7.95139e-016 2.98177e-016 -0 -7.95139e-016 3.97569e-016 3.18055e-015 -17.7496 -7.90819 0.0808291 71.7676 54.7916 -4.95444 -17.6547 31.519 39.7372 2.74183 0.725716 -16.3023 4.68698e-007 -8.81511e-008 -1.46465e-009 -2.18574e-007 3.9302e-007 -2.81083e-006 7.03129e-007 8.339e-008 -1.30302e-006 4.68698e-007 -8.81511e-008 -1.46465e-009 0.0150026 -9.07279e-005 -2.57492e-006 4.68701e-007 -8.81514e-008 -1.4535e-009 4.68698e-007 -8.81511e-008 -1.46465e-009 0.0190074 -0.00119196 -5.11274e-005 4.68701e-007 -8.81514e-008 -1.45491e-009 4.68698e-007 -8.81511e-008 -1.46465e-009 0.0122569 -0.00324473 -0.00066915 4.68701e-007 -8.81491e-008 -1.4686e-009 4.68698e-007 -8.81511e-008 -1.46465e-009 -2.18574e-007 3.9302e-007 -2.81083e-006 7.03129e-007 8.339e-008 -1.30302e-006 -81.8849 -39.9244 -72.3496 -129.962 66.6538 156.387 -27.1754 8.72856 4.09009 -1.97484e-007 -1.65743e-007 -3.54676e-006 67.3049 -52.4758 69.3391 3.11962 19.7102 -0.0783111 3.79301 -2.04002 0.067557 2.65409e-015 -9.93923e-017 1.98785e-016 
